<svg width="529" height="735" viewBox="0 0 529 735" fill="none" xmlns="http://www.w3.org/2000/svg">
<path d="M224.115 65.0687L223.809 4.28432L216.425 0C152.236 34.8318 64.2392 90.5419 1.03083 130.15L0 496.026L154.073 401.925L152.786 551.62C199.546 523.079 258.981 484.506 306.459 459.913L306.009 734.645L528.619 599.512L529 110.456C477.53 139.748 426.803 170.425 376.876 202.454L376.92 47.1544C343.129 67.7415 263.897 120.144 230.138 130.603C221.985 119.038 224.415 125.251 222.191 112.242C219.055 84.6915 215.413 87.4938 224.115 65.0687ZM514.769 588.186C461.787 620.351 373.178 678.146 321.258 704.939L321.664 254.495C383.161 217.281 452.51 173.072 514.419 138.427L514.769 588.186ZM209.066 23.687L209.56 147.19L152.73 182.689C153.323 246.728 152.586 318.308 154.629 381.797C131.464 395.906 32.6726 461.531 16.4738 458.748L16.2675 456.548C16.2175 352.35 17.6233 244.398 15.9366 140.505C79.8508 100.754 144.234 61.8065 209.066 23.687ZM362.127 209.153L306.909 243.622C306.709 308.147 305.684 374.613 306.771 439.009L169.672 520.749L169.484 191.892C220.161 160.995 311.613 101.803 361.846 76.6402L362.127 209.153Z" fill="#5768FD" fill-opacity="0.05"/>
</svg>
