<svg preserveAspectRatio="none" width="100%" height="100%" overflow="visible" style="display: block;" viewBox="0 0 10.3333 10.3333" fill="none" xmlns="http://www.w3.org/2000/svg">
<g id="Vector">
<path d="M9.83333 4.66663C10.1095 4.66663 10.3333 4.89049 10.3333 5.16663C10.3333 5.44277 10.1095 5.66663 9.83333 5.66663H0.5C0.223858 5.66663 0 5.44277 0 5.16663C0 4.89049 0.223858 4.66663 0.5 4.66663H9.83333Z" fill="var(--fill-0, white)"/>
<path d="M4.81315 0.146447C5.00841 -0.0488155 5.32492 -0.0488155 5.52018 0.146447L10.1868 4.81311C10.3821 5.00838 10.3821 5.32488 10.1868 5.52014L5.52018 10.1868C5.32492 10.3821 5.00841 10.3821 4.81315 10.1868C4.61789 9.99155 4.61789 9.67504 4.81315 9.47978L9.1263 5.16663L4.81315 0.853478C4.61789 0.658216 4.61789 0.341709 4.81315 0.146447Z" fill="var(--fill-0, white)"/>
</g>
</svg>
