<svg preserveAspectRatio="none" width="100%" height="100%" overflow="visible" style="display: block;" viewBox="0 0 11.6667 14.3354" fill="none" xmlns="http://www.w3.org/2000/svg">
<path id="Vector" d="M10.6667 3.16667C10.6666 3.12257 10.649 3.08001 10.6178 3.04883C10.5866 3.01767 10.5441 3 10.5 3C9.00677 3 7.23675 2.13318 6.01497 1.06641C5.9643 1.02318 5.89994 1 5.83333 1C5.76672 1 5.70237 1.02383 5.65169 1.06706C4.43704 2.12666 2.66018 3 1.16667 3C1.12253 3 1.08007 3.01767 1.04883 3.04883C1.01764 3.08001 1.00008 3.12257 1 3.16667V7.83333C1 9.36786 1.53115 10.4932 2.37174 11.3542C3.11927 12.1198 4.12902 12.6934 5.27669 13.138L5.77669 13.321L5.78776 13.3249C5.82316 13.3381 5.86192 13.3386 5.89779 13.3268C7.24767 12.8561 8.44233 12.2309 9.29557 11.3555C10.1357 10.4935 10.6667 9.36785 10.6667 7.83333V3.16667ZM11.6667 7.83333C11.6667 9.63206 11.0309 11.007 10.0111 12.0534C9.00488 13.0857 7.64692 13.7764 6.22461 14.2721L6.2207 14.2741C5.97022 14.359 5.6984 14.3554 5.44987 14.2656C4.02386 13.7731 2.66352 13.0843 1.65625 12.0527C0.635378 11.0071 0 9.63193 0 7.83333V3.16667C7.9362e-05 2.85735 0.123075 2.56052 0.341797 2.3418C0.560575 2.1231 0.857318 2 1.16667 2C2.33811 2 3.89216 1.27594 4.9974 0.310547L5.00195 0.306641C5.23371 0.108692 5.52855 0 5.83333 0C6.10007 0 6.359 0.0834999 6.57487 0.236979L6.66471 0.306641L6.66927 0.310547C7.78069 1.28221 9.32815 2 10.5 2C10.8093 2 11.1061 2.1231 11.3249 2.3418C11.5436 2.56052 11.6666 2.85736 11.6667 3.16667V7.83333Z" fill="var(--fill-0, #00D492)"/>
</svg>
